<svg xmlns="http://www.w3.org/2000/svg" xmlns:xlink="http://www.w3.org/1999/xlink" width="500" zoomAndPan="magnify" viewBox="0 0 375 374.999991" height="500" preserveAspectRatio="xMidYMid meet" version="1.0"><defs><g/><clipPath id="f77f8d03ed"><rect x="0" width="246" y="0" height="314"/></clipPath></defs><rect x="-37.5" width="450" fill="#ffffff" y="-37.499999" height="449.999989" fill-opacity="1"/><rect x="-37.5" width="450" fill="#ffffff" y="-37.499999" height="449.999989" fill-opacity="1"/><g transform="matrix(1, 0, 0, 1, 66, 61)"><g clip-path="url(#f77f8d03ed)"><g fill="#737373" fill-opacity="1"><g transform="translate(0.87824, 238.759439)"><g><path d="M 159.578125 -139.453125 C 174.316406 -139.453125 185.554688 -134.253906 193.296875 -123.859375 C 200.671875 -113.660156 204.359375 -99.300781 204.359375 -80.78125 L 204.359375 -55.84375 C 204.359375 -39.59375 200.769531 -26.269531 193.59375 -15.875 C 186.21875 -5.289062 174.691406 0 159.015625 0 L 31.171875 0 C 29.847656 0 28.144531 -0.519531 26.0625 -1.5625 C 23.988281 -2.601562 22.953125 -5.296875 22.953125 -9.640625 L 22.953125 -32.3125 C 22.953125 -36.65625 23.988281 -39.347656 26.0625 -40.390625 C 28.144531 -41.429688 29.847656 -41.953125 31.171875 -41.953125 L 152.203125 -41.953125 C 154.660156 -41.953125 156.410156 -42.375 157.453125 -43.21875 C 158.492188 -44.070312 159.296875 -44.878906 159.859375 -45.640625 C 161.554688 -48.472656 162.40625 -52.4375 162.40625 -57.53125 L 162.40625 -81.90625 C 162.40625 -88.90625 161.269531 -93.253906 159 -94.953125 C 156.738281 -96.648438 154.566406 -97.5 152.484375 -97.5 L 67.453125 -97.5 C 61.597656 -97.5 55.597656 -98.253906 49.453125 -99.765625 C 43.316406 -101.273438 38.078125 -104.960938 33.734375 -110.828125 C 26.359375 -121.210938 22.671875 -136.328125 22.671875 -156.171875 L 22.671875 -177.71875 C 22.671875 -194.34375 26.359375 -207.757812 33.734375 -217.96875 C 41.097656 -228.351562 52.53125 -233.546875 68.03125 -233.546875 L 190.1875 -233.546875 C 191.320312 -233.546875 192.925781 -233.023438 195 -231.984375 C 197.082031 -230.953125 198.125 -228.265625 198.125 -223.921875 L 198.125 -201.234375 C 198.125 -196.890625 197.082031 -194.195312 195 -193.15625 C 192.925781 -192.125 191.320312 -191.609375 190.1875 -191.609375 L 74.828125 -191.609375 C 72.367188 -191.609375 70.617188 -191.226562 69.578125 -190.46875 C 68.546875 -189.71875 67.742188 -188.867188 67.171875 -187.921875 C 65.660156 -184.898438 64.90625 -180.929688 64.90625 -176.015625 L 64.90625 -155.046875 C 64.90625 -148.046875 65.988281 -143.695312 68.15625 -142 C 70.332031 -140.300781 72.460938 -139.453125 74.546875 -139.453125 Z M 159.578125 -139.453125 "/></g></g></g></g></g></svg>